<svg xmlns="http://www.w3.org/2000/svg" version="1.1" xmlns:xlink="http://www.w3.org/1999/xlink" xmlns:svgjs="http://svgjs.dev/svgjs" width="1000" height="623" viewBox="0 0 1000 623"><g transform="matrix(1,0,0,1,-0.6060606060606233,0.2522267206477409)"><svg viewBox="0 0 396 247" data-background-color="#ffffff" preserveAspectRatio="xMidYMid meet" height="623" width="1000" xmlns="http://www.w3.org/2000/svg" xmlns:xlink="http://www.w3.org/1999/xlink"><defs></defs><g id="tight-bounds" transform="matrix(1,0,0,1,0.2400000000000091,-0.09999999999999432)"><svg viewBox="0 0 395.52 247.2" height="247.2" width="395.52"><g><svg></svg></g><g><svg viewBox="0 0 395.52 247.2" height="247.2" width="395.52"><g transform="matrix(2.8846895702188897, 0, 0, 2.8846895702188897, 83.06051090624756, 0.9999999999999858)"><svg xmlns="http://www.w3.org/2000/svg" xmlns:xlink="http://www.w3.org/1999/xlink" version="1.1" x="0" y="0" viewBox="5.238998889923096 2.5001983642578125 79.52293395996094 85.00048065185547" enable-background="new 0 0 90 90" xml:space="preserve" height="85.00048065185547" width="79.52293395996094" class="icon-none" data-fill-palette-color="accent" id="none"><path d="M77.563 25.16C65.567 5.193 42.783-3.146 26.67 6.534c-0.881 0.529-1.704 1.121-2.499 1.744-2.359 0.66-4.646 1.611-6.807 2.909-1.586 0.952-3.011 2.08-4.348 3.294 0.564 2.298 0.813 4.924 0.104 7.383 0 0 5.478 5.998 1.979 11.872 0 0 4.142 7.672-1.154 11.725 0 0 0.752 5.934-4.964 7.335 0 0-1.302 1.411-3.742 1.897 1.157 3.448 2.682 6.867 4.669 10.176 9.109 15.163 24.439 23.594 38.35 22.544-12.568-0.904-25.596-9.058-33.697-22.544-1.987-3.309-3.511-6.728-4.669-10.176 2.44-0.486 3.742-1.897 3.742-1.897 0.643-0.157 1.193-0.38 1.683-0.636 1.043 2.729 2.318 5.427 3.897 8.056 11.994 19.964 34.779 28.304 50.894 18.623C86.22 69.16 89.558 45.125 77.563 25.16zM23.25 40.807c0 0 0.735 5.849-4.857 7.303 0.353-1.449 0.205-2.65 0.205-2.65 5.296-4.052 1.154-11.725 1.154-11.725 3.499-5.874-1.979-11.872-1.979-11.872 0.71-2.458 0.461-5.085-0.104-7.383 1.337-1.214 2.762-2.342 4.348-3.294 0.17-0.102 0.351-0.174 0.522-0.271 0.383 2.022 0.488 4.213-0.114 6.295 0 0 5.478 5.998 1.979 11.872C24.405 29.083 28.546 36.755 23.25 40.807z" fill="#283132" data-fill-palette-color="accent"></path></svg></g><rect width="348.05760000000004" height="55.21862582021497" fill="#ffffff" y="95.9906870898925" x="23.731199999999973" data-fill-palette-color="quaternary"></rect><g transform="matrix(1,0,0,1,39.55199999999999,104.84560988939492)"><svg viewBox="0 0 316.416 37.50878022121015" height="37.50878022121015" width="316.416"><g><svg viewBox="0 0 316.416 37.50878022121015" height="37.50878022121015" width="316.416"><g><svg viewBox="0 0 316.416 37.50878022121015" height="37.50878022121015" width="316.416"><g><svg viewBox="0 0 316.416 37.50878022121015" height="37.50878022121015" width="316.416"><g><svg viewBox="0 0 316.416 37.50878022121015" height="37.50878022121015" width="316.416"><g><svg viewBox="0 0 316.416 37.50878022121015" height="37.50878022121015" width="316.416"><g transform="matrix(1,0,0,1,0,0)"><svg width="316.416" viewBox="3.5999999046325684 -35.099998474121094 384.2099914550781 45.54999923706055" height="37.50878022121015" data-palette-color="#336a86"><path d="M16.55-35.1L16.55-35.1Q18.65-35.1 20.13-35 21.6-34.9 22.85-34.7 24.1-34.5 25.45-34.2L25.45-34.2 25.1-32.7Q23.7-32.9 22.48-33.02 21.25-33.15 19.85-33.2 18.45-33.25 16.55-33.25L16.55-33.25Q12.55-33.25 10.2-31.73 7.85-30.2 6.8-26.7 5.75-23.2 5.75-17.25L5.75-17.25Q5.75-11.3 6.8-7.8 7.85-4.3 10.2-2.78 12.55-1.25 16.55-1.25L16.55-1.25Q19.6-1.25 21.7-1.4 23.8-1.55 25.8-1.9L25.8-1.9 26.15-0.35Q24.1 0.15 21.95 0.38 19.8 0.6 16.55 0.6L16.55 0.6Q11.8 0.6 8.95-1.13 6.1-2.85 4.85-6.75 3.6-10.65 3.6-17.25L3.6-17.25Q3.6-23.85 4.85-27.75 6.1-31.65 8.95-33.38 11.8-35.1 16.55-35.1ZM32.7-24.1L34.2-24.1 34.45-19.65 34.65-18.85 34.65 0 32.7 0 32.7-24.1ZM45.45-24.7L46.45-24.7 46.15-22.8 45.15-22.8Q42.65-22.8 40.2-21.6 37.75-20.4 34.45-18.25L34.45-18.25 34.35-19.75Q37.25-22.1 40.02-23.4 42.8-24.7 45.45-24.7L45.45-24.7ZM60.25-24.7L60.25-24.7Q65.14-24.7 67.52-22.93 69.9-21.15 69.94-17.6L69.94-17.6Q70.05-14.4 68.82-12.73 67.59-11.05 64.64-11.05L64.64-11.05 50.65-11.05 50.65-12.7 64.34-12.7Q66.4-12.7 67.19-14 68-15.3 67.9-17.5L67.9-17.5Q67.84-20.35 66-21.63 64.14-22.9 60.34-22.9L60.34-22.9Q57.15-22.9 55.27-21.9 53.4-20.9 52.59-18.55 51.8-16.2 51.8-12.25L51.8-12.25Q51.8-8.05 52.72-5.63 53.65-3.2 55.67-2.2 57.7-1.2 60.9-1.2L60.9-1.2Q63.25-1.2 65.42-1.4 67.59-1.6 69.15-1.8L69.15-1.8 69.4-0.4Q68.5-0.1 66.94 0.13 65.39 0.35 63.7 0.48 62 0.6 60.65 0.6L60.65 0.6Q56.75 0.6 54.34-0.68 51.95-1.95 50.82-4.75 49.7-7.55 49.7-12.15L49.7-12.15Q49.7-16.8 50.77-19.55 51.84-22.3 54.17-23.5 56.5-24.7 60.25-24.7ZM88.54-24.7L88.54-24.7Q90.79-24.7 92.39-24 93.99-23.3 94.82-21.78 95.64-20.25 95.64-17.7L95.64-17.7 95.64 0 94.14 0 93.74-5.3 93.64-5.65 93.64-17.7Q93.64-20 92.54-21.45 91.44-22.9 88.29-22.9L88.29-22.9Q85.79-22.9 82.87-22.68 79.94-22.45 77.24-22.15L77.24-22.15 77.04-23.65Q78.64-23.9 80.42-24.13 82.19-24.35 84.22-24.53 86.24-24.7 88.54-24.7ZM82.04-14.65L94.39-14.65 94.34-13.05 82.24-12.9Q80.14-12.85 79.12-11.8 78.09-10.75 78.09-8.75L78.09-8.75 78.09-6.05Q78.09-3.8 79.27-2.68 80.44-1.55 82.79-1.5L82.79-1.5Q84.59-1.45 86.69-2.13 88.79-2.8 90.79-4 92.79-5.2 94.19-6.65L94.19-6.65 94.19-4.9Q93.49-4.1 92.29-3.23 91.09-2.35 89.54-1.53 87.99-0.7 86.22-0.18 84.44 0.35 82.59 0.35L82.59 0.35Q80.59 0.35 79.12-0.38 77.64-1.1 76.84-2.5 76.04-3.9 76.04-5.9L76.04-5.9 76.04-8.9Q76.04-11.65 77.62-13.15 79.19-14.65 82.04-14.65L82.04-14.65ZM133.34-24.7L133.34-24.7Q136.34-24.7 137.97-23.03 139.59-21.35 139.59-18.1L139.59-18.1 139.59 0 137.64 0 137.64-17.7Q137.59-20.4 136.39-21.65 135.19-22.9 132.74-22.9L132.74-22.9Q131.19-22.9 129.69-22.38 128.19-21.85 126.56-20.8 124.94-19.75 122.79-18.15L122.79-18.15 122.74-19.75Q125.49-22.25 128.12-23.48 130.74-24.7 133.34-24.7ZM104.54-24.1L106.09-24.1 106.29-19.65 106.49-18.85 106.49 0 104.54 0 104.54-24.1ZM116.79-24.7L116.79-24.7Q119.79-24.7 121.41-23.05 123.04-21.4 123.04-18.1L123.04-18.1 123.04 0 121.09 0 121.09-17.7Q121.09-20.4 119.86-21.65 118.64-22.9 116.19-22.9L116.19-22.9Q114.69-22.9 113.19-22.4 111.69-21.9 110.04-20.83 108.39-19.75 106.29-18.15L106.29-18.15 106.19-19.75Q108.94-22.25 111.56-23.48 114.19-24.7 116.79-24.7ZM166.04-24.1L168.24-24.1 157.49 2.1Q156.84 3.6 156.11 4.95 155.39 6.3 154.39 7.43 153.39 8.55 152.09 9.33 150.79 10.1 148.99 10.45L148.99 10.45 148.69 9.2Q151.64 8.1 153.19 6.15 154.74 4.2 155.69 1.7L155.69 1.7 156.74-0.8Q157.09-1.65 157.44-2.63 157.79-3.6 158.14-4.4L158.14-4.4 166.04-24.1ZM145.29-24.1L147.44-24.1 155.34-4.35Q155.59-3.65 155.89-3 156.19-2.35 156.39-1.65L156.39-1.65 157.39-1.65 156.69 0 155.74 0Q155.49 0 155.24-0.15 154.99-0.3 154.89-0.6L154.89-0.6 145.29-24.1ZM196.33-35.1L196.33-35.1Q198.43-35.1 199.91-35 201.38-34.9 202.63-34.7 203.88-34.5 205.23-34.2L205.23-34.2 204.88-32.7Q203.48-32.9 202.26-33.02 201.03-33.15 199.63-33.2 198.23-33.25 196.33-33.25L196.33-33.25Q192.33-33.25 189.98-31.73 187.63-30.2 186.58-26.7 185.53-23.2 185.53-17.25L185.53-17.25Q185.53-11.3 186.58-7.8 187.63-4.3 189.98-2.78 192.33-1.25 196.33-1.25L196.33-1.25Q199.38-1.25 201.48-1.4 203.58-1.55 205.58-1.9L205.58-1.9 205.93-0.35Q203.88 0.15 201.73 0.38 199.58 0.6 196.33 0.6L196.33 0.6Q191.58 0.6 188.73-1.13 185.88-2.85 184.63-6.75 183.38-10.65 183.38-17.25L183.38-17.25Q183.38-23.85 184.63-27.75 185.88-31.65 188.73-33.38 191.58-35.1 196.33-35.1ZM212.48-24.1L213.98-24.1 214.23-19.65 214.43-18.85 214.43 0 212.48 0 212.48-24.1ZM225.23-24.7L226.23-24.7 225.93-22.8 224.93-22.8Q222.43-22.8 219.98-21.6 217.53-20.4 214.23-18.25L214.23-18.25 214.13-19.75Q217.03-22.1 219.81-23.4 222.58-24.7 225.23-24.7L225.23-24.7ZM240.03-24.7L240.03-24.7Q244.93-24.7 247.3-22.93 249.68-21.15 249.73-17.6L249.73-17.6Q249.83-14.4 248.6-12.73 247.38-11.05 244.43-11.05L244.43-11.05 230.43-11.05 230.43-12.7 244.13-12.7Q246.18-12.7 246.98-14 247.78-15.3 247.68-17.5L247.68-17.5Q247.63-20.35 245.78-21.63 243.93-22.9 240.13-22.9L240.13-22.9Q236.93-22.9 235.05-21.9 233.18-20.9 232.38-18.55 231.58-16.2 231.58-12.25L231.58-12.25Q231.58-8.05 232.5-5.63 233.43-3.2 235.45-2.2 237.48-1.2 240.68-1.2L240.68-1.2Q243.03-1.2 245.2-1.4 247.38-1.6 248.93-1.8L248.93-1.8 249.18-0.4Q248.28-0.1 246.73 0.13 245.18 0.35 243.48 0.48 241.78 0.6 240.43 0.6L240.43 0.6Q236.53 0.6 234.13-0.68 231.73-1.95 230.6-4.75 229.48-7.55 229.48-12.15L229.48-12.15Q229.48-16.8 230.55-19.55 231.63-22.3 233.95-23.5 236.28-24.7 240.03-24.7ZM268.33-24.7L268.33-24.7Q270.58-24.7 272.18-24 273.78-23.3 274.6-21.78 275.43-20.25 275.43-17.7L275.43-17.7 275.43 0 273.93 0 273.53-5.3 273.43-5.65 273.43-17.7Q273.43-20 272.33-21.45 271.23-22.9 268.08-22.9L268.08-22.9Q265.58-22.9 262.65-22.68 259.73-22.45 257.03-22.15L257.03-22.15 256.83-23.65Q258.43-23.9 260.2-24.13 261.98-24.35 264-24.53 266.03-24.7 268.33-24.7ZM261.83-14.65L274.18-14.65 274.13-13.05 262.03-12.9Q259.93-12.85 258.9-11.8 257.88-10.75 257.88-8.75L257.88-8.75 257.88-6.05Q257.88-3.8 259.05-2.68 260.23-1.55 262.58-1.5L262.58-1.5Q264.38-1.45 266.48-2.13 268.58-2.8 270.58-4 272.58-5.2 273.98-6.65L273.98-6.65 273.98-4.9Q273.28-4.1 272.08-3.23 270.88-2.35 269.33-1.53 267.78-0.7 266-0.18 264.23 0.35 262.38 0.35L262.38 0.35Q260.38 0.35 258.9-0.38 257.43-1.1 256.63-2.5 255.83-3.9 255.83-5.9L255.83-5.9 255.83-8.9Q255.83-11.65 257.4-13.15 258.98-14.65 261.83-14.65L261.83-14.65ZM285.72-31.55L287.72-31.55 287.72-5.3Q287.72-3.35 288.7-2.43 289.67-1.5 291.57-1.5L291.57-1.5 295.77-1.5 296.02-0.05Q295.32 0.05 294.42 0.15 293.52 0.25 292.72 0.3 291.92 0.35 291.42 0.35L291.42 0.35Q288.62 0.35 287.17-1.05 285.72-2.45 285.72-5.1L285.72-5.1 285.72-31.55ZM286.07-24.1L296.32-24.1 296.32-22.4 281.37-22.4 281.37-23.85 286.07-24.1ZM302.27-24.1L304.22-24.1 304.22 0 302.27 0 302.27-24.1ZM302.82-34.15L303.67-34.15Q304.47-34.15 304.47-33.35L304.47-33.35 304.47-30.35Q304.47-29.55 303.67-29.55L303.67-29.55 302.82-29.55Q302.02-29.55 302.02-30.35L302.02-30.35 302.02-33.35Q302.02-34.15 302.82-34.15L302.82-34.15ZM322.97-24.7L322.97-24.7Q326.97-24.7 329.32-23.48 331.67-22.25 332.69-19.48 333.72-16.7 333.72-12.05L333.72-12.05Q333.72-7.45 332.69-4.65 331.67-1.85 329.32-0.63 326.97 0.6 322.97 0.6L322.97 0.6Q319.07 0.6 316.67-0.63 314.27-1.85 313.24-4.65 312.22-7.45 312.22-12.05L312.22-12.05Q312.22-16.7 313.24-19.48 314.27-22.25 316.67-23.48 319.07-24.7 322.97-24.7ZM322.97-22.9L322.97-22.9Q319.77-22.9 317.87-21.9 315.97-20.9 315.14-18.55 314.32-16.2 314.32-12.05L314.32-12.05Q314.32-7.95 315.14-5.55 315.97-3.15 317.87-2.15 319.77-1.15 322.97-1.15L322.97-1.15Q326.17-1.15 328.07-2.15 329.97-3.15 330.82-5.55 331.67-7.95 331.67-12.05L331.67-12.05Q331.67-16.2 330.82-18.55 329.97-20.9 328.07-21.9 326.17-22.9 322.97-22.9ZM354.82-24.7L354.82-24.7Q361.32-24.7 361.32-18.1L361.32-18.1 361.32 0 359.32 0 359.32-17.7Q359.32-20.45 358.12-21.68 356.92-22.9 354.37-22.9L354.37-22.9Q351.72-22.9 349.22-21.7 346.72-20.5 343.32-18.15L343.32-18.15 343.27-19.8Q346.27-22.2 349.14-23.45 352.02-24.7 354.82-24.7ZM341.57-24.1L343.17-24.1 343.37-19.65 343.52-18.85 343.52 0 341.57 0 341.57-24.1ZM377.61-24.7L377.61-24.7Q379.11-24.7 380.76-24.63 382.41-24.55 384.06-24.4 385.71-24.25 387.16-24.05L387.16-24.05 386.96-22.6Q384.76-22.7 382.39-22.8 380.01-22.9 377.81-22.95L377.81-22.95Q375.26-23 373.66-22.8 372.06-22.6 371.31-21.6 370.56-20.6 370.56-18.25L370.56-18.25Q370.56-15.8 371.59-14.85 372.61-13.9 374.46-13.6L374.46-13.6 382.31-12.45Q385.01-12 386.41-10.55 387.81-9.1 387.81-6.2L387.81-6.2Q387.81-3.15 386.69-1.73 385.56-0.3 383.41 0.13 381.26 0.55 378.11 0.55L378.11 0.55Q376.46 0.55 374.24 0.45 372.01 0.35 369.16-0.05L369.16-0.05 369.36-1.5Q370.86-1.4 372.21-1.33 373.56-1.25 374.94-1.23 376.31-1.2 377.91-1.2L377.91-1.2Q380.86-1.25 382.59-1.58 384.31-1.9 385.09-2.98 385.86-4.05 385.86-6.2L385.86-6.2Q385.86-8.6 384.69-9.55 383.51-10.5 381.71-10.75L381.71-10.75 373.86-11.9Q372.16-12.15 370.96-12.88 369.76-13.6 369.19-14.9 368.61-16.2 368.61-18.25L368.61-18.25Q368.61-21.25 369.61-22.63 370.61-24 372.61-24.38 374.61-24.75 377.61-24.7Z" opacity="1" transform="matrix(1,0,0,1,0,0)" fill="#336a86" class="undefined-text-0" data-fill-palette-color="primary" id="text-0"></path></svg></g></svg></g></svg></g></svg></g></svg></g></svg></g></svg></g></svg></g></svg><rect width="395.52" height="247.2" fill="none" stroke="none" visibility="hidden"></rect></g></svg></g></svg>